<svg xmlns="http://www.w3.org/2000/svg" xmlns:xlink="http://www.w3.org/1999/xlink" width="50" height="10" viewBox="0 0 50 10"><defs><path id="zojga" d="M381 1670a3 3 0 0 1 3-3h3.7a3 3 0 0 1 3 3v4a3 3 0 0 1-3 3H384a3 3 0 0 1-3-3z"/><path id="zojgb" d="M394.43 1670a3 3 0 0 1 3-3h3.7a3 3 0 0 1 3 3v4a3 3 0 0 1-3 3h-3.7a3 3 0 0 1-3-3z"/><path id="zojgc" d="M407.87 1670a3 3 0 0 1 3-3h3.7a3 3 0 0 1 3 3v4a3 3 0 0 1-3 3h-3.7a3 3 0 0 1-3-3z"/><path id="zojgd" d="M421.3 1670a3 3 0 0 1 3-3h3.7a3 3 0 0 1 3 3v4a3 3 0 0 1-3 3h-3.7a3 3 0 0 1-3-3z"/></defs><g><g transform="translate(-381 -1667)"><g><use fill="#d0d0d0" xlink:href="#zojga"/></g><g><use fill="#71f6eb" xlink:href="#zojgb"/></g><g><use fill="#d0d0d0" xlink:href="#zojgc"/></g><g><use fill="#d0d0d0" xlink:href="#zojgd"/></g></g></g></svg>